<svg xmlns="http://www.w3.org/2000/svg" viewBox="0 0 337.33 63.16"><defs><style>.cls-1{fill:#939598;}</style></defs><title>Asset 18</title><g id="Layer_2" data-name="Layer 2"><g id="Layer_1-2" data-name="Layer 1"><path class="cls-1" d="M13.87,15.71a18,18,0,0,0,3.27,3.06,7,7,0,0,0,3.2,1.36v.73H14.6L7.72,11.71H6.08v4.34a14.52,14.52,0,0,0,.12,2.16,2.52,2.52,0,0,0,.45,1.18,1.7,1.7,0,0,0,1,.57,7.74,7.74,0,0,0,1.77.16v.73H0v-.73A7.74,7.74,0,0,0,1.77,20a1.7,1.7,0,0,0,1-.57,2.53,2.53,0,0,0,.45-1.18,14.59,14.59,0,0,0,.12-2.16V4.76a14.59,14.59,0,0,0-.12-2.15,2.41,2.41,0,0,0-.45-1.16,1.74,1.74,0,0,0-1-.56A7.71,7.71,0,0,0,0,.73V0H9.18a8.27,8.27,0,0,1,5.49,1.67,5.27,5.27,0,0,1,2,4.21A5.26,5.26,0,0,1,15,9.8a7.46,7.46,0,0,1-4.54,1.91ZM12.43,9.18a4.82,4.82,0,0,0,1.13-3.3,4.82,4.82,0,0,0-1.13-3.3A4.14,4.14,0,0,0,9.14,1.29H6.08v9.18H9.14A4.14,4.14,0,0,0,12.43,9.18Z"/><path class="cls-1" d="M38.51,16.44a8.16,8.16,0,0,1-1.84,2.62,8.68,8.68,0,0,1-12,0,8.15,8.15,0,0,1-1.84-2.62,7.65,7.65,0,0,1-.66-3.13,7.54,7.54,0,0,1,.66-3.11,8.21,8.21,0,0,1,1.84-2.61,8.68,8.68,0,0,1,12,0,8.22,8.22,0,0,1,1.84,2.61,7.55,7.55,0,0,1,.66,3.11A7.66,7.66,0,0,1,38.51,16.44ZM36,10.91a7,7,0,0,0-1-2.17,5.12,5.12,0,0,0-1.77-1.6,5.67,5.67,0,0,0-5.11,0,5.12,5.12,0,0,0-1.77,1.6,7,7,0,0,0-1,2.17,9.35,9.35,0,0,0,0,4.8,7,7,0,0,0,1,2.17,5.12,5.12,0,0,0,1.77,1.6,5.67,5.67,0,0,0,5.11,0A5.12,5.12,0,0,0,35,17.88a7,7,0,0,0,1-2.17,9.35,9.35,0,0,0,0-4.8Z"/><path class="cls-1" d="M54.05,20.82a12.08,12.08,0,0,1-3.06.63,7.56,7.56,0,0,1-3-.63,7.65,7.65,0,0,1-2.52-1.76,8.37,8.37,0,0,1-2.29-5.75,8.1,8.1,0,0,1,.61-3.11,8.19,8.19,0,0,1,1.7-2.61A7.9,7.9,0,0,1,48,5.84a7.44,7.44,0,0,1,3-.63,5.64,5.64,0,0,1,2.54.64,5.75,5.75,0,0,1,2.05,1.65,1.73,1.73,0,0,0,.33-.68q.16-.5.3-1h.66v6h-.7a7.55,7.55,0,0,0-1.84-3.88,4.77,4.77,0,0,0-5.72-.8A4.74,4.74,0,0,0,47,8.76a7.22,7.22,0,0,0-.87,2.19,10.84,10.84,0,0,0,0,4.73A7.21,7.21,0,0,0,47,17.87a4.73,4.73,0,0,0,1.6,1.62,4.46,4.46,0,0,0,2.38.61,5.62,5.62,0,0,0,1.44-.21,6.22,6.22,0,0,0,1.46-.59,3.48,3.48,0,0,0,1.1-.94,2,2,0,0,0,.42-1.22,1.77,1.77,0,0,0-.83-1.56A3.82,3.82,0,0,0,52.42,15v-.7H60.1V15a5.11,5.11,0,0,0-1.44.16,1.49,1.49,0,0,0-.8.57,2.66,2.66,0,0,0-.4,1.18,17,17,0,0,0-.1,2.15v1A12.09,12.09,0,0,0,54.05,20.82Z"/><path class="cls-1" d="M73.5,19.12a2.86,2.86,0,0,0,1.06-1.77l.17-.7h.7l-.28,4.21h-13v-.7A5.32,5.32,0,0,0,63.61,20a1.42,1.42,0,0,0,.8-.57,2.84,2.84,0,0,0,.38-1.18,17,17,0,0,0,.1-2.16V10.53a17,17,0,0,0-.1-2.15,2.7,2.7,0,0,0-.38-1.16,1.44,1.44,0,0,0-.8-.56,5.31,5.31,0,0,0-1.46-.16V5.8H74.32L74.59,10h-.73l-.17-.69a2.75,2.75,0,0,0-1-1.76,6.15,6.15,0,0,0-3-.47H67.36v5.18h.21a15.74,15.74,0,0,0,2.1-.1,2.34,2.34,0,0,0,1.08-.38,1.27,1.27,0,0,0,.47-.78,7.84,7.84,0,0,0,.1-1.48H72v6.78h-.7a7.6,7.6,0,0,0-.1-1.44,1.34,1.34,0,0,0-.47-.8,2.24,2.24,0,0,0-1.1-.4,15.79,15.79,0,0,0-2.09-.1h-.21v2a17,17,0,0,0,.1,2.16,2.69,2.69,0,0,0,.38,1.16,1.44,1.44,0,0,0,.8.56,5.33,5.33,0,0,0,1.46.16h.42A6.35,6.35,0,0,0,73.5,19.12Z"/><path class="cls-1" d="M89.37,16.93a13.55,13.55,0,0,0,2.31,2.21,5.28,5.28,0,0,0,2.35,1v.7H89.57l-4.73-6.47h-1v1.7a17,17,0,0,0,.1,2.16,2.67,2.67,0,0,0,.4,1.18,1.49,1.49,0,0,0,.8.57,5.13,5.13,0,0,0,1.44.16v.7h-8v-.7A5.32,5.32,0,0,0,80.12,20a1.42,1.42,0,0,0,.8-.57,2.84,2.84,0,0,0,.38-1.18,17,17,0,0,0,.1-2.16V10.53a17,17,0,0,0-.1-2.15,2.7,2.7,0,0,0-.38-1.16,1.44,1.44,0,0,0-.8-.56,5.31,5.31,0,0,0-1.46-.16V5.8h7.19A6.31,6.31,0,0,1,89.94,7a3.82,3.82,0,0,1,1.48,3.11,3.86,3.86,0,0,1-1.15,2.78,5,5,0,0,1-3.06,1.43ZM88,7.92a2.62,2.62,0,0,0-2.12-.87h-2v6h2A2.64,2.64,0,0,0,88,12.25a3.17,3.17,0,0,0,.73-2.14A3.29,3.29,0,0,0,88,7.92Z"/><path class="cls-1" d="M104.75,20.11a5,5,0,0,1-3.49,1.34,5.76,5.76,0,0,1-2.17-.4,9.48,9.48,0,0,1-1.72-.89,3.8,3.8,0,0,0-.4.57,2.19,2.19,0,0,0-.26.71h-.63v-6h.69a5.17,5.17,0,0,0,1.49,3.41,4.56,4.56,0,0,0,3.27,1.22,2.92,2.92,0,0,0,1.91-.63,2.08,2.08,0,0,0,.76-1.7q0-1.67-2.85-3.09L99,13.45a6,6,0,0,1-2.1-1.77,4.09,4.09,0,0,1-.78-2.47A3.67,3.67,0,0,1,97.36,6.4a4.41,4.41,0,0,1,3.09-1.15,5.49,5.49,0,0,1,1.84.3,5.79,5.79,0,0,1,1.46.75l0,0a2.14,2.14,0,0,0,.49-1h.7v5.87h-.7A7.62,7.62,0,0,0,104,9.44,5.68,5.68,0,0,0,103.29,8a3.43,3.43,0,0,0-1.09-1.06,3,3,0,0,0-1.56-.4,2.88,2.88,0,0,0-1.79.54,1.75,1.75,0,0,0-.71,1.48A1.93,1.93,0,0,0,98.79,10a12.16,12.16,0,0,0,2.36,1.51l2.33,1.22a4.93,4.93,0,0,1,2.05,1.76,4.07,4.07,0,0,1,.66,2.17A4.46,4.46,0,0,1,104.75,20.11Z"/><path class="cls-1" d="M112.83,21a1.54,1.54,0,0,1-1.15-.5,1.66,1.66,0,0,1-.49-1.2,1.61,1.61,0,0,1,.49-1.18,1.57,1.57,0,0,1,1.15-.49,1.81,1.81,0,0,1,1.32.56,2.22,2.22,0,0,1,.56,1.63,5.91,5.91,0,0,1-.83,2.78A6.52,6.52,0,0,1,111.51,25l-.38-.42a9,9,0,0,0,1.37-1.82,6.07,6.07,0,0,0,.61-1.86A.73.73,0,0,1,112.83,21Z"/><path class="cls-1" d="M132.64,16.06a14.58,14.58,0,0,0,.12,2.14,2.43,2.43,0,0,0,.47,1.2,1.79,1.79,0,0,0,1,.57,7.74,7.74,0,0,0,1.77.16v.73h-7.93v-.73a7.74,7.74,0,0,0,1.77-.16,1.7,1.7,0,0,0,1-.57,2.53,2.53,0,0,0,.45-1.18,14.59,14.59,0,0,0,.12-2.16V4.76a14.59,14.59,0,0,0-.12-2.15,2.41,2.41,0,0,0-.45-1.16,1.74,1.74,0,0,0-1-.56,7.71,7.71,0,0,0-1.77-.16V0H134l7.37,16.93L148.66,0h5.46V.73a7.94,7.94,0,0,0-1.79.16,1.75,1.75,0,0,0-1,.56,2.4,2.4,0,0,0-.45,1.16,14.52,14.52,0,0,0-.12,2.15v11.3a14.52,14.52,0,0,0,.12,2.16,2.52,2.52,0,0,0,.45,1.18,1.71,1.71,0,0,0,1,.57,8,8,0,0,0,1.79.16v.73h-9.39v-.73a7.74,7.74,0,0,0,1.77-.16,1.7,1.7,0,0,0,1-.57,2.53,2.53,0,0,0,.45-1.18,14.66,14.66,0,0,0,.12-2.16V4.73l-7.23,16.72h-.45L132.64,3.68Z"/><path class="cls-1" d="M160.2,17.48a5.29,5.29,0,0,0-.52,1.7.74.74,0,0,0,.54.73,5.74,5.74,0,0,0,1.86.21v.73h-6.57v-.73a6.61,6.61,0,0,0,1.32-.1,1.78,1.78,0,0,0,.83-.42,3.41,3.41,0,0,0,.66-.87,16.76,16.76,0,0,0,.76-1.63L164.2,5.21h.49L169.8,17.1a16.57,16.57,0,0,0,.78,1.62,3.62,3.62,0,0,0,.68.89A1.78,1.78,0,0,0,172,20a5.2,5.2,0,0,0,1.16.1v.73h-7.79v-.73a5,5,0,0,0,1.79-.23.82.82,0,0,0,.54-.82,4.73,4.73,0,0,0-.45-1.6l-.7-1.6h-5.7Zm3.55-8.2-2.29,5.32H166Z"/><path class="cls-1" d="M184.1,20.11a5,5,0,0,1-3.49,1.34,5.76,5.76,0,0,1-2.17-.4,9.48,9.48,0,0,1-1.72-.89,3.8,3.8,0,0,0-.4.57,2.19,2.19,0,0,0-.26.71h-.63v-6h.69a5.17,5.17,0,0,0,1.49,3.41,4.56,4.56,0,0,0,3.27,1.22,2.92,2.92,0,0,0,1.91-.63,2.08,2.08,0,0,0,.76-1.7q0-1.67-2.85-3.09l-2.36-1.22a6,6,0,0,1-2.1-1.77,4.09,4.09,0,0,1-.78-2.47,3.67,3.67,0,0,1,1.25-2.82,4.41,4.41,0,0,1,3.09-1.15,5.49,5.49,0,0,1,1.84.3,5.79,5.79,0,0,1,1.46.75l0,0a2.14,2.14,0,0,0,.49-1h.7v5.87h-.7a7.62,7.62,0,0,0-.31-1.65A5.68,5.68,0,0,0,182.64,8a3.43,3.43,0,0,0-1.09-1.06,3,3,0,0,0-1.56-.4,2.88,2.88,0,0,0-1.79.54,1.75,1.75,0,0,0-.71,1.48,1.93,1.93,0,0,0,.66,1.48,12.16,12.16,0,0,0,2.36,1.51l2.33,1.22a4.93,4.93,0,0,1,2.05,1.76,4.07,4.07,0,0,1,.66,2.17A4.46,4.46,0,0,1,184.1,20.11Z"/><path class="cls-1" d="M192,7.16a11.46,11.46,0,0,0-1.88.12,3,3,0,0,0-1.08.37,1.56,1.56,0,0,0-.57.63,5.37,5.37,0,0,0-.37,1.11l-.17.7h-.69l.21-4.28h15.5l.24,4.28h-.73l-.17-.7a2.86,2.86,0,0,0-1.06-1.77,6.36,6.36,0,0,0-3-.45h-1.81v8.93a14.65,14.65,0,0,0,.12,2.14,3,3,0,0,0,.4,1.2,1.41,1.41,0,0,0,.8.57,5.33,5.33,0,0,0,1.46.16v.7h-8v-.7a5.33,5.33,0,0,0,1.46-.16,1.41,1.41,0,0,0,.8-.57,3,3,0,0,0,.4-1.2,14.65,14.65,0,0,0,.12-2.14V7.16Z"/><path class="cls-1" d="M215.54,16.93a13.55,13.55,0,0,0,2.31,2.21,5.28,5.28,0,0,0,2.35,1v.7h-4.45L211,14.39h-1v1.7a17,17,0,0,0,.1,2.16,2.67,2.67,0,0,0,.4,1.18,1.49,1.49,0,0,0,.8.57,5.13,5.13,0,0,0,1.44.16v.7h-8v-.7a5.32,5.32,0,0,0,1.46-.16,1.42,1.42,0,0,0,.8-.57,2.84,2.84,0,0,0,.38-1.18,17,17,0,0,0,.1-2.16V10.53a17,17,0,0,0-.1-2.15,2.7,2.7,0,0,0-.38-1.16,1.44,1.44,0,0,0-.8-.56,5.31,5.31,0,0,0-1.46-.16V5.8H212A6.31,6.31,0,0,1,216.11,7a3.82,3.82,0,0,1,1.48,3.11,3.86,3.86,0,0,1-1.15,2.78,5,5,0,0,1-3.06,1.43Zm-1.39-9A2.62,2.62,0,0,0,212,7.06h-2v6h2a2.64,2.64,0,0,0,2.12-.85,3.17,3.17,0,0,0,.73-2.14A3.29,3.29,0,0,0,214.15,7.92Z"/><path class="cls-1" d="M224.89,17.48a5.29,5.29,0,0,0-.52,1.7.74.74,0,0,0,.54.73,5.74,5.74,0,0,0,1.86.21v.73H220.2v-.73a6.61,6.61,0,0,0,1.32-.1,1.78,1.78,0,0,0,.83-.42,3.41,3.41,0,0,0,.66-.87,16.76,16.76,0,0,0,.76-1.63l5.11-11.89h.49l5.11,11.89a16.57,16.57,0,0,0,.78,1.62,3.62,3.62,0,0,0,.68.89,1.78,1.78,0,0,0,.78.42,5.2,5.2,0,0,0,1.16.1v.73H230.1v-.73a5,5,0,0,0,1.79-.23.82.82,0,0,0,.54-.82,4.73,4.73,0,0,0-.45-1.6l-.7-1.6h-5.7Zm3.55-8.2-2.29,5.32h4.59Z"/><path class="cls-1" d="M242.2,8.38a2.7,2.7,0,0,0-.38-1.16,1.44,1.44,0,0,0-.8-.56,5.31,5.31,0,0,0-1.46-.16V5.8h4.28l9.25,11V10.53a17,17,0,0,0-.1-2.15,2.69,2.69,0,0,0-.38-1.16,1.44,1.44,0,0,0-.8-.56,5.31,5.31,0,0,0-1.46-.16V5.8h6.78v.7a5.11,5.11,0,0,0-1.44.16,1.52,1.52,0,0,0-.8.56,2.53,2.53,0,0,0-.4,1.16,17,17,0,0,0-.1,2.15V21.41h-.66L243.59,9.28v6.81a17,17,0,0,0,.1,2.16,2.66,2.66,0,0,0,.4,1.18,1.49,1.49,0,0,0,.8.57,5.13,5.13,0,0,0,1.44.16v.7h-6.78v-.7A5.32,5.32,0,0,0,241,20a1.42,1.42,0,0,0,.8-.57,2.84,2.84,0,0,0,.38-1.18,17,17,0,0,0,.1-2.16V10.53A17,17,0,0,0,242.2,8.38Z"/><path class="cls-1" d="M271.05,20.82a12.08,12.08,0,0,1-3.06.63,7.56,7.56,0,0,1-3-.63,7.65,7.65,0,0,1-2.52-1.76,8.37,8.37,0,0,1-2.29-5.75,8.1,8.1,0,0,1,.61-3.11,8.19,8.19,0,0,1,1.7-2.61A7.9,7.9,0,0,1,265,5.84a7.44,7.44,0,0,1,3-.63,5.64,5.64,0,0,1,2.54.64,5.75,5.75,0,0,1,2.05,1.65,1.73,1.73,0,0,0,.33-.68q.16-.5.3-1h.66v6h-.7a7.55,7.55,0,0,0-1.84-3.88,4.77,4.77,0,0,0-5.72-.8A4.74,4.74,0,0,0,264,8.76a7.22,7.22,0,0,0-.87,2.19,10.84,10.84,0,0,0,0,4.73,7.21,7.21,0,0,0,.87,2.19,4.73,4.73,0,0,0,1.6,1.62,4.46,4.46,0,0,0,2.38.61,5.62,5.62,0,0,0,1.44-.21,6.22,6.22,0,0,0,1.46-.59,3.48,3.48,0,0,0,1.1-.94,2,2,0,0,0,.42-1.22,1.77,1.77,0,0,0-.83-1.56,3.82,3.82,0,0,0-2.15-.56v-.7h7.68V15a5.11,5.11,0,0,0-1.44.16,1.49,1.49,0,0,0-.8.57,2.66,2.66,0,0,0-.4,1.18,17,17,0,0,0-.1,2.15v1A12.09,12.09,0,0,0,271.05,20.82Z"/><path class="cls-1" d="M290.5,19.12a2.86,2.86,0,0,0,1.06-1.77l.17-.7h.7l-.28,4.21h-13v-.7a5.32,5.32,0,0,0,1.46-.16,1.42,1.42,0,0,0,.8-.57,2.84,2.84,0,0,0,.38-1.18,17,17,0,0,0,.1-2.16V10.53a17,17,0,0,0-.1-2.15,2.7,2.7,0,0,0-.38-1.16,1.44,1.44,0,0,0-.8-.56,5.31,5.31,0,0,0-1.46-.16V5.8h12.17l.28,4.17h-.73l-.17-.69a2.75,2.75,0,0,0-1-1.76,6.15,6.15,0,0,0-3-.47h-2.33v5.18h.21a15.74,15.74,0,0,0,2.1-.1,2.34,2.34,0,0,0,1.08-.38,1.27,1.27,0,0,0,.47-.78,7.84,7.84,0,0,0,.1-1.48h.7v6.78h-.7a7.6,7.6,0,0,0-.1-1.44,1.34,1.34,0,0,0-.47-.8,2.24,2.24,0,0,0-1.1-.4,15.79,15.79,0,0,0-2.09-.1h-.21v2a17,17,0,0,0,.1,2.16,2.69,2.69,0,0,0,.38,1.16,1.44,1.44,0,0,0,.8.56,5.33,5.33,0,0,0,1.46.16h.42A6.35,6.35,0,0,0,290.5,19.12Z"/><path class="cls-1" d="M298.3,8.38a2.7,2.7,0,0,0-.38-1.16,1.44,1.44,0,0,0-.8-.56,5.31,5.31,0,0,0-1.46-.16V5.8h8v.7a5.12,5.12,0,0,0-1.44.16,1.53,1.53,0,0,0-.8.56,2.54,2.54,0,0,0-.4,1.16,17,17,0,0,0-.1,2.15v5a17,17,0,0,0,.1,2.16,2.69,2.69,0,0,0,.38,1.16,1.44,1.44,0,0,0,.8.56,5.33,5.33,0,0,0,1.46.16h1.22a6.36,6.36,0,0,0,3-.45,2.86,2.86,0,0,0,1.06-1.77l.17-.7h.73l-.24,4.21H295.66v-.7a5.32,5.32,0,0,0,1.46-.16,1.42,1.42,0,0,0,.8-.57,2.84,2.84,0,0,0,.38-1.18,17,17,0,0,0,.1-2.16V10.53A17,17,0,0,0,298.3,8.38Z"/><path class="cls-1" d="M327.74,16.44a8.16,8.16,0,0,1-1.84,2.62,8.68,8.68,0,0,1-12,0,8.15,8.15,0,0,1-1.84-2.62,7.65,7.65,0,0,1-.66-3.13,7.54,7.54,0,0,1,.66-3.11,8.21,8.21,0,0,1,1.84-2.61,8.68,8.68,0,0,1,12,0,8.22,8.22,0,0,1,1.84,2.61,7.55,7.55,0,0,1,.66,3.11A7.66,7.66,0,0,1,327.74,16.44Zm-2.5-5.53a7,7,0,0,0-1-2.17,5.12,5.12,0,0,0-1.77-1.6,5.67,5.67,0,0,0-5.11,0,5.12,5.12,0,0,0-1.77,1.6,7,7,0,0,0-1,2.17,9.35,9.35,0,0,0,0,4.8,7,7,0,0,0,1,2.17,5.12,5.12,0,0,0,1.77,1.6,5.67,5.67,0,0,0,5.11,0,5.12,5.12,0,0,0,1.77-1.6,7,7,0,0,0,1-2.17,9.35,9.35,0,0,0,0-4.8Z"/><path class="cls-1" d="M335.46,21a1.54,1.54,0,0,1-1.15-.5,1.66,1.66,0,0,1-.49-1.2,1.61,1.61,0,0,1,.49-1.18,1.57,1.57,0,0,1,1.15-.49,1.81,1.81,0,0,1,1.32.56,2.22,2.22,0,0,1,.56,1.63,5.91,5.91,0,0,1-.83,2.78A6.52,6.52,0,0,1,334.14,25l-.38-.42a9,9,0,0,0,1.37-1.82,6.07,6.07,0,0,0,.61-1.86A.73.73,0,0,1,335.46,21Z"/><path class="cls-1" d="M19.47,62.18A4,4,0,0,0,19,61a2.68,2.68,0,0,0-.69-.82,9.84,9.84,0,0,1-3,2.19,8.15,8.15,0,0,1-3.46.76,10.13,10.13,0,0,1-4.1-.85,10.63,10.63,0,0,1-3.42-2.38A11.22,11.22,0,0,1,2,56.38,11.19,11.19,0,0,1,2,47.9a11.23,11.23,0,0,1,2.31-3.55A10.65,10.65,0,0,1,7.72,42a10.13,10.13,0,0,1,4.1-.85,8.15,8.15,0,0,1,3.46.76,9.88,9.88,0,0,1,3,2.19,3,3,0,0,0,.73-.83,3.21,3.21,0,0,0,.45-1.15h.7v7.65h-.7a10.29,10.29,0,0,0-2.69-5.34A6.61,6.61,0,0,0,12,42.48,6.65,6.65,0,0,0,6.12,45.6,10.42,10.42,0,0,0,4.8,48.73a14.27,14.27,0,0,0-.42,3.41,14,14,0,0,0,.42,3.39,10.19,10.19,0,0,0,1.34,3.11,7,7,0,0,0,2.38,2.28,6.71,6.71,0,0,0,3.44.85,6.61,6.61,0,0,0,4.81-1.93,10.27,10.27,0,0,0,2.69-5.3h.7v7.65Z"/><path class="cls-1" d="M27.53,59.2A5.29,5.29,0,0,0,27,60.9a.74.74,0,0,0,.54.73,5.74,5.74,0,0,0,1.86.21v.73H22.84v-.73a6.61,6.61,0,0,0,1.32-.1,1.78,1.78,0,0,0,.83-.42,3.41,3.41,0,0,0,.66-.87,16.76,16.76,0,0,0,.76-1.63l5.11-11.89H32l5.11,11.89a16.57,16.57,0,0,0,.78,1.62,3.62,3.62,0,0,0,.68.89,1.78,1.78,0,0,0,.78.42,5.2,5.2,0,0,0,1.16.1v.73H32.74v-.73a5,5,0,0,0,1.79-.23.82.82,0,0,0,.54-.82,4.73,4.73,0,0,0-.45-1.6l-.7-1.6h-5.7ZM31.07,51l-2.29,5.32h4.59Z"/><path class="cls-1" d="M52.9,58.64a13.55,13.55,0,0,0,2.31,2.21,5.28,5.28,0,0,0,2.35,1v.7H53.11L48.38,56.1h-1v1.7a17,17,0,0,0,.1,2.16,2.67,2.67,0,0,0,.4,1.18,1.49,1.49,0,0,0,.8.57,5.13,5.13,0,0,0,1.44.16v.7h-8v-.7a5.32,5.32,0,0,0,1.46-.16,1.42,1.42,0,0,0,.8-.57A2.84,2.84,0,0,0,44.84,60a17,17,0,0,0,.1-2.16V52.24a17,17,0,0,0-.1-2.15,2.7,2.7,0,0,0-.38-1.16,1.44,1.44,0,0,0-.8-.56,5.31,5.31,0,0,0-1.46-.16v-.7h7.19a6.31,6.31,0,0,1,4.08,1.2A3.82,3.82,0,0,1,55,51.83a3.86,3.86,0,0,1-1.15,2.78A5,5,0,0,1,50.75,56Zm-1.39-9a2.62,2.62,0,0,0-2.12-.87h-2v6h2A2.64,2.64,0,0,0,51.51,54a3.17,3.17,0,0,0,.73-2.14A3.29,3.29,0,0,0,51.51,49.64Z"/><path class="cls-1" d="M74,48.32a1.78,1.78,0,0,0-.83.42,2.9,2.9,0,0,0-.63.87q-.28.56-.76,1.67L66.63,63.16h-.45L61,51.27q-.45-1-.76-1.63a3,3,0,0,0-.66-.89,2.06,2.06,0,0,0-.78-.42,4.48,4.48,0,0,0-1.16-.12v-.7h7.79v.7a4.72,4.72,0,0,0-1.79.24.82.82,0,0,0-.54.8,4.71,4.71,0,0,0,.45,1.6l3.55,8.2,3.51-8.2a5,5,0,0,0,.56-1.7.74.74,0,0,0-.54-.73,5.75,5.75,0,0,0-1.86-.21v-.7h6.53v.7A6.61,6.61,0,0,0,74,48.32Z"/><path class="cls-1" d="M77.83,59.2a5.29,5.29,0,0,0-.52,1.7.74.74,0,0,0,.54.73,5.74,5.74,0,0,0,1.86.21v.73H73.13v-.73a6.61,6.61,0,0,0,1.32-.1,1.78,1.78,0,0,0,.83-.42,3.41,3.41,0,0,0,.66-.87,16.76,16.76,0,0,0,.76-1.63l5.11-11.89h.49l5.11,11.89a16.57,16.57,0,0,0,.78,1.62,3.62,3.62,0,0,0,.68.89,1.78,1.78,0,0,0,.78.42,5.2,5.2,0,0,0,1.16.1v.73H83v-.73a5,5,0,0,0,1.79-.23.82.82,0,0,0,.54-.82,4.73,4.73,0,0,0-.45-1.6l-.7-1.6h-5.7ZM81.37,51l-2.29,5.32h4.59Z"/><path class="cls-1" d="M95.14,50.09a2.7,2.7,0,0,0-.38-1.16,1.44,1.44,0,0,0-.8-.56,5.31,5.31,0,0,0-1.46-.16v-.7h8v.7a5.12,5.12,0,0,0-1.44.16,1.53,1.53,0,0,0-.8.56,2.54,2.54,0,0,0-.4,1.16,17,17,0,0,0-.1,2.15v5a17,17,0,0,0,.1,2.16,2.69,2.69,0,0,0,.38,1.16,1.44,1.44,0,0,0,.8.56,5.33,5.33,0,0,0,1.46.16h1.22a6.36,6.36,0,0,0,3-.45,2.86,2.86,0,0,0,1.06-1.77l.17-.7h.73l-.24,4.21H92.49v-.7A5.32,5.32,0,0,0,94,61.72a1.42,1.42,0,0,0,.8-.57A2.84,2.84,0,0,0,95.14,60a17,17,0,0,0,.1-2.16V52.24A17,17,0,0,0,95.14,50.09Z"/><path class="cls-1" d="M121,53.95v-1.7a17,17,0,0,0-.1-2.15,2.7,2.7,0,0,0-.38-1.16,1.44,1.44,0,0,0-.8-.56,5.31,5.31,0,0,0-1.46-.16v-.7h8v.7a5.14,5.14,0,0,0-1.42.16,1.44,1.44,0,0,0-.8.56,2.85,2.85,0,0,0-.4,1.18,14.58,14.58,0,0,0-.12,2.14V57.8a14.58,14.58,0,0,0,.12,2.14,3,3,0,0,0,.4,1.2,1.41,1.41,0,0,0,.8.57,5.16,5.16,0,0,0,1.42.16v.7h-8v-.7a5.33,5.33,0,0,0,1.46-.16,1.42,1.42,0,0,0,.8-.57,2.84,2.84,0,0,0,.38-1.18,17,17,0,0,0,.1-2.16V55.23h-7.89V57.8a17,17,0,0,0,.1,2.16,2.67,2.67,0,0,0,.4,1.18,1.49,1.49,0,0,0,.8.57,5.13,5.13,0,0,0,1.44.16v.7h-8v-.7a5.32,5.32,0,0,0,1.46-.16,1.42,1.42,0,0,0,.8-.57,2.84,2.84,0,0,0,.38-1.18,17,17,0,0,0,.1-2.16V52.24a17,17,0,0,0-.1-2.15,2.7,2.7,0,0,0-.38-1.16,1.44,1.44,0,0,0-.8-.56,5.31,5.31,0,0,0-1.46-.16v-.7h8v.7a5.12,5.12,0,0,0-1.44.16,1.53,1.53,0,0,0-.8.56,2.54,2.54,0,0,0-.4,1.16,17,17,0,0,0-.1,2.15v1.7Z"/><path class="cls-1" d="M146.13,58.15a8.16,8.16,0,0,1-1.84,2.62,8.68,8.68,0,0,1-12,0,8.15,8.15,0,0,1-1.84-2.62,7.65,7.65,0,0,1-.66-3.13,7.54,7.54,0,0,1,.66-3.11,8.21,8.21,0,0,1,1.84-2.61,8.68,8.68,0,0,1,12,0,8.22,8.22,0,0,1,1.84,2.61,7.55,7.55,0,0,1,.66,3.11A7.66,7.66,0,0,1,146.13,58.15Zm-2.5-5.53a7,7,0,0,0-1-2.17,5.12,5.12,0,0,0-1.77-1.6,5.67,5.67,0,0,0-5.11,0,5.12,5.12,0,0,0-1.77,1.6,7,7,0,0,0-1,2.17,9.35,9.35,0,0,0,0,4.8,7,7,0,0,0,1,2.17,5.12,5.12,0,0,0,1.77,1.6,5.67,5.67,0,0,0,5.11,0,5.12,5.12,0,0,0,1.77-1.6,7,7,0,0,0,1-2.17,9.35,9.35,0,0,0,0-4.8Z"/><path class="cls-1" d="M165.91,63.16a8.55,8.55,0,0,1-2.47-.36,7,7,0,0,1-2.22-1.13,5.34,5.34,0,0,1-1.58-1.93,5.94,5.94,0,0,1-.57-2.66,5.06,5.06,0,0,1,1-3.23,11.44,11.44,0,0,1,2.92-2.5,10.11,10.11,0,0,1-1.91-5.21,4.48,4.48,0,0,1,1.7-3.58,6,6,0,0,1,1.88-1.06,6.68,6.68,0,0,1,2.22-.37,5.57,5.57,0,0,1,3.51,1.13,3.65,3.65,0,0,1,.42,5.47,17,17,0,0,1-3.2,2.26q-1.36.8-2,1.25A70.32,70.32,0,0,0,171.29,58a8.52,8.52,0,0,0,.49-2.09q.07-.69.07-1.11a1.75,1.75,0,0,0-.66-1.6,5,5,0,0,0-2.47-.42V52.1h7.86v.73a7.75,7.75,0,0,0-1.76.16,2.17,2.17,0,0,0-1,.5,2.08,2.08,0,0,0-.54.9A10.11,10.11,0,0,0,173,56a10.37,10.37,0,0,1-.8,3,12.87,12.87,0,0,0,2.21,2,3.59,3.59,0,0,0,2,.76,3.39,3.39,0,0,0,2.26-1.22l.59.59a5.26,5.26,0,0,1-1.65,1.48,3.78,3.78,0,0,1-1.86.54,4.82,4.82,0,0,1-2.38-.61,10.82,10.82,0,0,1-2.24-1.72A6.29,6.29,0,0,1,165.91,63.16Zm.61-7.28a38.67,38.67,0,0,1-2.62-3.28,7.81,7.81,0,0,0-1.72,2.07,5.48,5.48,0,0,0-.61,2.69,4.29,4.29,0,0,0,1.32,3.11,4.45,4.45,0,0,0,3.3,1.34,5.29,5.29,0,0,0,2.33-.49A5.19,5.19,0,0,0,170.25,60Q168.06,57.63,166.51,55.88ZM165,50.16a21.54,21.54,0,0,0,3.55-2.43,3.38,3.38,0,0,0,1.15-2.61,2.51,2.51,0,0,0-.78-1.89,2.73,2.73,0,0,0-2-.75,3.18,3.18,0,0,0-3.3,3.09A9.48,9.48,0,0,0,165,50.16Z"/><path class="cls-1" d="M193.71,57.77a14.58,14.58,0,0,0,.12,2.14,2.43,2.43,0,0,0,.47,1.2,1.79,1.79,0,0,0,1,.57,7.74,7.74,0,0,0,1.77.16v.73h-7.93v-.73a7.74,7.74,0,0,0,1.77-.16,1.7,1.7,0,0,0,1-.57,2.53,2.53,0,0,0,.45-1.18,14.59,14.59,0,0,0,.12-2.16V46.47a14.59,14.59,0,0,0-.12-2.15,2.41,2.41,0,0,0-.45-1.16,1.74,1.74,0,0,0-1-.56,7.71,7.71,0,0,0-1.77-.16v-.73H195l7.37,16.93,7.33-16.93h5.46v.73a7.94,7.94,0,0,0-1.79.16,1.75,1.75,0,0,0-1,.56,2.4,2.4,0,0,0-.45,1.16,14.52,14.52,0,0,0-.12,2.15v11.3a14.52,14.52,0,0,0,.12,2.16,2.52,2.52,0,0,0,.45,1.18,1.71,1.71,0,0,0,1,.57,8,8,0,0,0,1.79.16v.73h-9.39v-.73a7.74,7.74,0,0,0,1.77-.16,1.7,1.7,0,0,0,1-.57,2.53,2.53,0,0,0,.45-1.18,14.66,14.66,0,0,0,.12-2.16V46.44l-7.23,16.72h-.45L193.71,45.4Z"/><path class="cls-1" d="M218.08,62.57v-.7a5.32,5.32,0,0,0,1.46-.16,1.42,1.42,0,0,0,.8-.57,2.84,2.84,0,0,0,.38-1.18,17,17,0,0,0,.1-2.16V52.24a17,17,0,0,0-.1-2.15,2.7,2.7,0,0,0-.38-1.16,1.44,1.44,0,0,0-.8-.56,5.31,5.31,0,0,0-1.46-.16v-.7h8v.7a5.12,5.12,0,0,0-1.44.16,1.53,1.53,0,0,0-.8.56,2.54,2.54,0,0,0-.4,1.16,17,17,0,0,0-.1,2.15V57.8a17,17,0,0,0,.1,2.16,2.67,2.67,0,0,0,.4,1.18,1.49,1.49,0,0,0,.8.57,5.13,5.13,0,0,0,1.44.16v.7Z"/><path class="cls-1" d="M232.54,48.87a11.46,11.46,0,0,0-1.88.12,3,3,0,0,0-1.08.37A1.56,1.56,0,0,0,229,50a5.37,5.37,0,0,0-.37,1.11l-.17.7h-.69l.21-4.28h15.5l.24,4.28H243l-.17-.7a2.86,2.86,0,0,0-1.06-1.77,6.36,6.36,0,0,0-3-.45H237V57.8a14.65,14.65,0,0,0,.12,2.14,3,3,0,0,0,.4,1.2,1.41,1.41,0,0,0,.8.57,5.33,5.33,0,0,0,1.46.16v.7h-8v-.7a5.33,5.33,0,0,0,1.46-.16,1.41,1.41,0,0,0,.8-.57,3,3,0,0,0,.4-1.2,14.65,14.65,0,0,0,.12-2.14V48.87Z"/><path class="cls-1" d="M258.85,62.57a6.88,6.88,0,0,0-.28-1,1.88,1.88,0,0,0-.35-.66,6.53,6.53,0,0,1-2.07,1.63,5.43,5.43,0,0,1-2.52.66,7.56,7.56,0,0,1-3-.63,7.65,7.65,0,0,1-2.52-1.76A8.37,8.37,0,0,1,245.78,55a8.1,8.1,0,0,1,.61-3.11,8.19,8.19,0,0,1,1.7-2.61,7.9,7.9,0,0,1,2.52-1.76,7.44,7.44,0,0,1,3-.63,5.64,5.64,0,0,1,2.54.64,5.75,5.75,0,0,1,2.05,1.65,1.73,1.73,0,0,0,.33-.68q.16-.5.3-1h.66v6h-.7A7.55,7.55,0,0,0,257,49.65a4.54,4.54,0,0,0-7.28.82,7.8,7.8,0,0,0-.83,2.19,10.84,10.84,0,0,0,0,4.73,7.47,7.47,0,0,0,.85,2.19,4.64,4.64,0,0,0,1.56,1.62,4.37,4.37,0,0,0,2.36.61A4.45,4.45,0,0,0,257,60.39a7.55,7.55,0,0,0,1.84-3.88h.7v6Z"/><path class="cls-1" d="M276.47,53.95v-1.7a17,17,0,0,0-.1-2.15,2.7,2.7,0,0,0-.38-1.16,1.44,1.44,0,0,0-.8-.56,5.31,5.31,0,0,0-1.46-.16v-.7h8v.7a5.14,5.14,0,0,0-1.42.16,1.44,1.44,0,0,0-.8.56,2.85,2.85,0,0,0-.4,1.18,14.58,14.58,0,0,0-.12,2.14V57.8a14.58,14.58,0,0,0,.12,2.14,3,3,0,0,0,.4,1.2,1.41,1.41,0,0,0,.8.57,5.16,5.16,0,0,0,1.42.16v.7h-8v-.7a5.33,5.33,0,0,0,1.46-.16,1.42,1.42,0,0,0,.8-.57,2.84,2.84,0,0,0,.38-1.18,17,17,0,0,0,.1-2.16V55.23h-7.89V57.8a17,17,0,0,0,.1,2.16,2.67,2.67,0,0,0,.4,1.18,1.49,1.49,0,0,0,.8.57,5.13,5.13,0,0,0,1.44.16v.7h-8v-.7a5.32,5.32,0,0,0,1.46-.16,1.42,1.42,0,0,0,.8-.57A2.84,2.84,0,0,0,266,60a17,17,0,0,0,.1-2.16V52.24a17,17,0,0,0-.1-2.15,2.7,2.7,0,0,0-.38-1.16,1.44,1.44,0,0,0-.8-.56,5.31,5.31,0,0,0-1.46-.16v-.7h8v.7a5.12,5.12,0,0,0-1.44.16,1.53,1.53,0,0,0-.8.56,2.54,2.54,0,0,0-.4,1.16,17,17,0,0,0-.1,2.15v1.7Z"/><path class="cls-1" d="M296.27,60.83a2.86,2.86,0,0,0,1.06-1.77l.17-.7h.7l-.28,4.21h-13v-.7a5.32,5.32,0,0,0,1.46-.16,1.42,1.42,0,0,0,.8-.57,2.84,2.84,0,0,0,.38-1.18,17,17,0,0,0,.1-2.16V52.24a17,17,0,0,0-.1-2.15,2.7,2.7,0,0,0-.38-1.16,1.44,1.44,0,0,0-.8-.56,5.31,5.31,0,0,0-1.46-.16v-.7h12.17l.28,4.17h-.73l-.17-.69a2.75,2.75,0,0,0-1-1.76,6.15,6.15,0,0,0-3-.47h-2.33v5.18h.21a15.74,15.74,0,0,0,2.1-.1,2.34,2.34,0,0,0,1.08-.38,1.27,1.27,0,0,0,.47-.78,7.84,7.84,0,0,0,.1-1.48h.7V58h-.7a7.6,7.6,0,0,0-.1-1.44,1.34,1.34,0,0,0-.47-.8,2.24,2.24,0,0,0-1.1-.4,15.79,15.79,0,0,0-2.09-.1h-.21v2a17,17,0,0,0,.1,2.16,2.69,2.69,0,0,0,.38,1.16,1.44,1.44,0,0,0,.8.56,5.33,5.33,0,0,0,1.46.16h.42A6.35,6.35,0,0,0,296.27,60.83Z"/><path class="cls-1" d="M304.07,50.09a2.7,2.7,0,0,0-.38-1.16,1.44,1.44,0,0,0-.8-.56,5.31,5.31,0,0,0-1.46-.16v-.7h8v.7a5.12,5.12,0,0,0-1.44.16,1.53,1.53,0,0,0-.8.56,2.54,2.54,0,0,0-.4,1.16,17,17,0,0,0-.1,2.15v5a17,17,0,0,0,.1,2.16,2.69,2.69,0,0,0,.38,1.16,1.44,1.44,0,0,0,.8.56,5.33,5.33,0,0,0,1.46.16h1.22a6.36,6.36,0,0,0,3-.45,2.86,2.86,0,0,0,1.06-1.77l.17-.7h.73l-.24,4.21H301.43v-.7a5.32,5.32,0,0,0,1.46-.16,1.42,1.42,0,0,0,.8-.57,2.84,2.84,0,0,0,.38-1.18,17,17,0,0,0,.1-2.16V52.24A17,17,0,0,0,304.07,50.09Z"/><path class="cls-1" d="M319.47,50.09a2.7,2.7,0,0,0-.38-1.16,1.44,1.44,0,0,0-.8-.56,5.31,5.31,0,0,0-1.46-.16v-.7h8v.7a5.12,5.12,0,0,0-1.44.16,1.53,1.53,0,0,0-.8.56,2.54,2.54,0,0,0-.4,1.16,17,17,0,0,0-.1,2.15v5a17,17,0,0,0,.1,2.16,2.69,2.69,0,0,0,.38,1.16,1.44,1.44,0,0,0,.8.56,5.33,5.33,0,0,0,1.46.16H326a6.36,6.36,0,0,0,3-.45A2.86,2.86,0,0,0,330,59.06l.17-.7h.73l-.24,4.21H316.83v-.7a5.32,5.32,0,0,0,1.46-.16,1.42,1.42,0,0,0,.8-.57,2.84,2.84,0,0,0,.38-1.18,17,17,0,0,0,.1-2.16V52.24A17,17,0,0,0,319.47,50.09Z"/></g></g></svg>