<svg xmlns="http://www.w3.org/2000/svg" viewBox="0 0 283.35 100"><defs><style>.cls-1{fill:#aa1f23;}.cls-2{fill:#fff;}</style></defs><title>RMCM-SOLID</title><g id="Layer_2" data-name="Layer 2"><g id="Layer_1-2" data-name="Layer 1"><rect class="cls-1" width="62.01" height="100"/><rect class="cls-1" x="67.26" width="72.49" height="100"/><rect class="cls-1" x="145.01" width="60.62" height="100"/><rect class="cls-1" x="210.88" width="72.48" height="100"/><path class="cls-2" d="M35.72,51.55a11.51,11.51,0,0,0,3.15-1.81,13.47,13.47,0,0,0,4.24-6.51,35.47,35.47,0,0,0,1.44-11,36.93,36.93,0,0,0-1.33-10.72c-1.26-4.16-3.47-6.71-6.07-8.09a17.28,17.28,0,0,0-8.21-1.66H15.14V85.84h6.13V52.55h8.52L40.62,85.84h6.67Zm-2.15-5.5a9.61,9.61,0,0,1-4.33.88h-8V17.45h8a9.47,9.47,0,0,1,4.33.88,6.37,6.37,0,0,1,2.16,1.76,11.09,11.09,0,0,1,2,4.7,34.86,34.86,0,0,1,.65,7.4c0,5.18-.67,9-2.11,11.3A6.63,6.63,0,0,1,33.56,46.05Z"/><polygon class="cls-2" points="124.68 11.71 124.68 85.84 118.55 85.84 118.55 28.33 103.43 71.54 88.46 29.62 88.46 85.84 82.33 85.84 82.33 11.71 88.56 11.71 103.5 53.66 118.44 11.71 124.68 11.71"/><path class="cls-2" d="M184.42,29.38v-1a20.8,20.8,0,0,0-.67-5.5,9.55,9.55,0,0,0-2.27-4.18,7.68,7.68,0,0,0-5.63-2,8,8,0,0,0-6,2.19h0a9.37,9.37,0,0,0-1.77,2.61,16.36,16.36,0,0,0-1.1,4.47c-.54,4.11-.7,10.88-.7,22.85,0,9,.09,15,.37,19.24s.74,6.53,1.43,8.09a9.37,9.37,0,0,0,1.77,2.61h0a8,8,0,0,0,6,2.19,7.68,7.68,0,0,0,5.63-2,9.55,9.55,0,0,0,2.27-4.18,20.8,20.8,0,0,0,.67-5.5v-1h6.13v1a25.06,25.06,0,0,1-1.18,8,14.09,14.09,0,0,1-3.92,6.18h0a13.82,13.82,0,0,1-9.59,3.29c-4.14,0-7.88-1.27-10.36-3.86h0A14.25,14.25,0,0,1,162.72,79a19.87,19.87,0,0,1-1.63-5.71c-.75-4.8-1-12-1-24.5,0-9.34.11-15.76.48-20.41s1-7.54,2.1-9.8a14.08,14.08,0,0,1,2.77-3.79h0c2.48-2.58,6.22-3.86,10.36-3.86,4.46,0,7.84,1.42,10.25,3.85h0c3.21,3.33,4.44,8.27,4.44,13.57v1Z"/><polygon class="cls-2" points="268.3 11.71 268.3 85.84 262.16 85.84 262.16 28.32 247.04 71.54 232.08 29.62 232.08 85.84 225.94 85.84 225.94 11.71 232.17 11.71 247.12 53.66 262.06 11.71 268.3 11.71"/></g></g></svg>