<svg xmlns="http://www.w3.org/2000/svg" viewBox="0 0 283.35 100"><defs><style>.cls-1{fill:#fff;}</style></defs><title>RMCM-KO</title><g id="Layer_2" data-name="Layer 2"><g id="Layer_1-2" data-name="Layer 1"><path class="cls-1" d="M36.29,43.48a6.64,6.64,0,0,1-2.73,2.57,9.61,9.61,0,0,1-4.33.88h-8V17.45h8a9.47,9.47,0,0,1,4.33.88,6.37,6.37,0,0,1,2.16,1.76,11.09,11.09,0,0,1,2,4.7,34.81,34.81,0,0,1,.65,7.4C38.41,37.37,37.73,41.15,36.29,43.48Z"/><path class="cls-1" d="M0,0V100H62V0ZM40.62,85.84,29.79,52.55H21.28V85.84H15.14V11.71H28.93a17.28,17.28,0,0,1,8.21,1.66c2.6,1.38,4.81,3.93,6.07,8.09a37,37,0,0,1,1.33,10.72,35.46,35.46,0,0,1-1.44,11,13.47,13.47,0,0,1-4.24,6.51,11.5,11.5,0,0,1-3.14,1.81L47.28,85.84Z"/><path class="cls-1" d="M67.26,0V100h72.49V0Zm57.42,85.84h-6.13V28.33L103.43,71.54l-15-41.91V85.84H82.33V11.71h6.23L103.5,53.66l14.94-41.94h6.24Z"/><path class="cls-1" d="M145,0V100h60.62V0Zm45.55,29.38h-6.13v-1a20.83,20.83,0,0,0-.67-5.5,9.55,9.55,0,0,0-2.27-4.18,7.68,7.68,0,0,0-5.63-2,8,8,0,0,0-6,2.19h0a9.34,9.34,0,0,0-1.77,2.61,16.33,16.33,0,0,0-1.1,4.47c-.54,4.11-.7,10.88-.7,22.85,0,9,.09,15,.37,19.24s.74,6.53,1.43,8.09a9.33,9.33,0,0,0,1.77,2.61h0a8,8,0,0,0,6,2.19,7.68,7.68,0,0,0,5.63-2,9.55,9.55,0,0,0,2.27-4.18,20.83,20.83,0,0,0,.67-5.5v-1h6.13v1a25.06,25.06,0,0,1-1.18,8,14.1,14.1,0,0,1-3.92,6.17h0a13.82,13.82,0,0,1-9.59,3.29c-4.14,0-7.88-1.27-10.36-3.86h0A14.26,14.26,0,0,1,162.72,79a19.9,19.9,0,0,1-1.63-5.71c-.75-4.8-1-12-1-24.5,0-9.34.12-15.76.48-20.41s1-7.54,2.1-9.8a14.09,14.09,0,0,1,2.77-3.79h0c2.48-2.58,6.22-3.86,10.36-3.86,4.46,0,7.84,1.42,10.25,3.85h0c3.21,3.33,4.44,8.27,4.44,13.57Z"/><path class="cls-1" d="M210.88,0V100h72.48V0ZM268.3,85.84h-6.13V28.32L247,71.54l-15-41.91V85.84h-6.15V11.71h6.24l14.94,41.94,14.94-41.94h6.24Z"/></g></g></svg>